<?xml version="1.0" encoding="UTF-8"?>
<svg xmlns="http://www.w3.org/2000/svg" xmlns:xlink="http://www.w3.org/1999/xlink" width="4000" height="4000" viewBox="0 0 4000 4000">
<path fill-rule="evenodd" fill="rgb(0%, 0%, 0%)" fill-opacity="1" d="M 1466.148438 1958.058594 C 858.167969 2152.839844 394.035156 2671.03125 275.105469 3309.335938 C 275.011719 3309.839844 274.921875 3310.34375 274.835938 3310.847656 C 255.898438 3419.910156 286.113281 3531.761719 357.386719 3616.457031 C 428.65625 3701.148438 533.707031 3750.027344 644.398438 3750 L 644.367188 3750 C 1256.179688 3750 2744.488281 3750 3356.300781 3746.753906 C 3465.351562 3746.753906 3569.460938 3698.289062 3640.089844 3614.339844 C 3710.730469 3530.386719 3740.671875 3419.519531 3721.910156 3311.421875 C 3721.851562 3311.089844 3721.789062 3310.761719 3721.730469 3310.429688 C 3605.511719 2671.398438 3141.800781 2152.851562 2533.839844 1958.070312 C 2777.679688 1788.761719 2937.5 1506.640625 2937.5 1187.5 C 2937.5 670.078125 2517.421875 250 2000 250 C 1482.578125 250 1062.5 670.078125 1062.5 1187.5 C 1062.5 1506.589844 1222.261719 1788.671875 1466.148438 1958.058594 Z M 644.367188 3500 C 644.355469 3500 644.347656 3500 644.335938 3500 C 607.441406 3500.007812 572.425781 3483.714844 548.664062 3455.484375 C 525.132812 3427.523438 515.03125 3390.675781 520.972656 3354.652344 C 651.640625 2655.679688 1264.320312 2125 2000 2125 C 2735.558594 2125 3348.21875 2655.550781 3475.660156 3354.558594 C 3481.671875 3389.84375 3471.851562 3425.988281 3448.800781 3453.386719 C 3425.660156 3480.882812 3391.558594 3496.757812 3355.628906 3496.757812 C 3355.410156 3496.757812 3355.191406 3496.757812 3354.96875 3496.757812 C 2743.460938 3500 1255.878906 3500 644.367188 3500 Z M 2000 500 C 2379.441406 500 2687.5 808.058594 2687.5 1187.5 C 2687.5 1566.941406 2379.441406 1875 2000 1875 C 1620.558594 1875 1312.5 1566.941406 1312.5 1187.5 C 1312.5 808.058594 1620.558594 500 2000 500 "/>
</svg>
