<svg id="Layer_1" data-name="Layer 1" xmlns="http://www.w3.org/2000/svg" viewBox="0 0 863.65 325.3"><defs><style>.cls-1{fill:#27aae1;}.cls-2{fill:#c49a6c;}</style></defs><path class="cls-1" d="M77.49,65.7c-26.18,0-45,13.61-53.67,28.8V68.06H0V279.57a23.81,23.81,0,0,0,23.82-23.82V185.07c8.9,14.66,27.49,28.8,53.67,28.8,38.48,0,68.06-30.11,68.06-74.61C145.55,94.5,116,65.7,77.49,65.7Zm-5,127.22c-25.91,0-48.69-19.63-48.69-53.4,0-33.24,22.78-53.14,48.69-53.14,26.44,0,48.69,19.11,48.69,52.88S99,192.92,72.51,192.92Z"/><path class="cls-1" d="M282.19,89.78v4.45c-8.38-14.92-26.7-28.53-53.4-28.53-38.49,0-68.07,28.8-68.07,73.56,0,44.5,29.58,74.61,67.8,74.61,26.44,0,45-13.62,53.67-29.06v5a24.09,24.09,0,0,0,24.08,24.09V65.7A24.08,24.08,0,0,0,282.19,89.78ZM233.5,192.92c-26.18,0-48.43-19.89-48.43-53.66s22.25-52.88,48.43-52.88,48.69,19.9,48.69,53.14C282.19,173.29,259.67,192.92,233.5,192.92Z"/><path class="cls-1" d="M625.91,181.09c-7.31,8.19-18.21,12.62-32.18,12.62-26.18,0-45.55-18.59-45.55-54.19,0-35.08,19.37-53.66,45.55-53.66,13.78,0,24.69,4.64,32,12.64,8.79,9.62,20.83,15.63,33.86,15.63H660C652.63,84,629.33,65.7,593.73,65.7c-40.84,0-69.9,28.8-69.9,73.82,0,45.55,29.06,74.35,69.9,74.35,35.6,0,58.9-19.9,66.23-48.43h-.19A45.52,45.52,0,0,0,625.91,181.09Z"/><path class="cls-1" d="M817.56,134.29c0-39.27-27.23-68.59-68.85-68.59-41.88,0-70.94,28.53-70.94,73.82,0,45.55,30.1,74.35,70.94,74.35,35.6,0,58.64-20.42,66-46.6h-2.19c-12.22,0-23.57,5.47-32,14.3-7.17,7.49-17.81,12.14-31.76,12.14-24.34,0-44.76-16-46.59-45H816.77A127.48,127.48,0,0,0,817.56,134.29Zm-115.18-5c2.62-28,22-43.45,45.28-43.45,24.61,0,45.55,15.44,45.29,43.45Z"/><path class="cls-1" d="M850.5,0a13.15,13.15,0,0,0-13.15,13.15V200.71a13.15,13.15,0,1,0,26.3,0V13.15A13.14,13.14,0,0,0,850.5,0Z"/><polygon class="cls-2" points="544.84 242.31 530.69 263.44 471.67 223.89 471.67 91.13 366.33 91.13 366.33 223.89 307.32 263.44 293.15 242.31 340.9 210.32 340.9 65.71 497.1 65.71 497.1 210.32 544.84 242.31"/><path class="cls-1" d="M733.72,282.82c0,5.38-3.51,8.41-7.44,8.41s-7.39-3-7.39-8.35,3.51-8.36,7.39-8.36S733.72,277.43,733.72,282.82Z"/><path class="cls-1" d="M662.67,256.08v69.21h201V256.08Zm66.69,44.17A12.15,12.15,0,0,1,719,295v20.82H708.6V266H719v4.78c1.88-3,5.45-5.26,10.41-5.26,8.3,0,14.89,6.65,14.89,17.31S737.66,300.25,729.36,300.25Zm45.82-23.67h-2.85c-4.9,0-7.74,1.7-7.74,7.51v15.67H754.24V266h10.35v5.63a12.59,12.59,0,0,1,10.59-6Zm24.87,23.67c-9.93,0-17.43-6.66-17.43-17.37s7.69-17.37,17.55-17.37,17.55,6.65,17.55,17.37S810,300.25,800.05,300.25Zm.12-25.79c-3.75,0-7,2.67-7,8.42s3.15,8.41,6.9,8.41,7.14-2.72,7.14-8.41S803.8,274.46,800.17,274.46Z"/></svg>